<mxfile host="app.diagrams.net" modified="2021-08-30T00:15:33.300Z" agent="5.0 (Windows NT 10.0; Win64; x64) AppleWebKit/537.36 (KHTML, like Gecko) Chrome/92.0.4515.159 Safari/537.36" etag="qV_a4sR57hEK4obIf5uX" version="15.0.3" type="github">
  <diagram id="I_Y3yOh9RAoF4FceXf0e" name="Page-1">
    <mxGraphModel dx="1209" dy="626" grid="1" gridSize="10" guides="1" tooltips="1" connect="1" arrows="1" fold="1" page="1" pageScale="1" pageWidth="850" pageHeight="1100" math="0" shadow="0">
      <root>
        <mxCell id="0" />
        <mxCell id="1" parent="0" />
        <mxCell id="bvA0lOvOXNpVNb4tt3j4-1" value="&lt;table class=&quot;table table-striped&quot; style=&quot;box-sizing: inherit; margin-top: 0px; margin-right: 0px; margin-left: 0px; width: 842.138px; border: 0px; border-collapse: collapse; border-spacing: 0px; word-break: normal; color: rgb(34, 34, 34); font-family: &amp;quot;source sans pro&amp;quot;, sans-serif; font-size: 18px; font-style: normal; font-weight: 400; letter-spacing: normal; text-transform: none; word-spacing: 0px; background-color: rgb(255, 255, 255);&quot;&gt;&lt;tbody style=&quot;box-sizing: inherit&quot;&gt;&lt;tr style=&quot;box-sizing: inherit&quot;&gt;&lt;th style=&quot;box-sizing: inherit ; padding: 0.5rem ; border: 0px ; text-align: left ; background: rgb(249 , 249 , 249)&quot;&gt;JDK&lt;/th&gt;&lt;th style=&quot;box-sizing: inherit ; padding: 0.5rem ; border: 0px ; text-align: left ; background: rgb(249 , 249 , 249)&quot;&gt;JRE&lt;/th&gt;&lt;th style=&quot;box-sizing: inherit ; padding: 0.5rem ; border: 0px ; text-align: left ; background: rgb(249 , 249 , 249)&quot;&gt;JVM&lt;/th&gt;&lt;/tr&gt;&lt;tr style=&quot;box-sizing: inherit&quot;&gt;&lt;td style=&quot;box-sizing: inherit ; padding: 0.5rem ; border-width: 1px 0px 0px ; border-top-style: solid ; border-top-color: rgb(238 , 238 , 238)&quot;&gt;The full form of JDK is Java Development Kit.&lt;/td&gt;&lt;td style=&quot;box-sizing: inherit ; padding: 0.5rem ; border-width: 1px 0px 0px ; border-top-style: solid ; border-top-color: rgb(238 , 238 , 238)&quot;&gt;The full form of JRE is Java Runtime Environment.&lt;/td&gt;&lt;td style=&quot;box-sizing: inherit ; padding: 0.5rem ; border-width: 1px 0px 0px ; border-top-style: solid ; border-top-color: rgb(238 , 238 , 238)&quot;&gt;The full form of JVM is Java Virtual Machine.&lt;/td&gt;&lt;/tr&gt;&lt;tr style=&quot;box-sizing: inherit&quot;&gt;&lt;td style=&quot;box-sizing: inherit ; padding: 0.5rem ; border-width: 1px 0px 0px ; border-top-style: solid ; border-top-color: rgb(238 , 238 , 238) ; background: rgb(249 , 249 , 249)&quot;&gt;JDK is a software development kit to develop applications in Java.&lt;/td&gt;&lt;td style=&quot;box-sizing: inherit ; padding: 0.5rem ; border-width: 1px 0px 0px ; border-top-style: solid ; border-top-color: rgb(238 , 238 , 238) ; background: rgb(249 , 249 , 249)&quot;&gt;It is a software bundle which provides Java class libraries with necessary components to run Java code.&lt;/td&gt;&lt;td style=&quot;box-sizing: inherit ; padding: 0.5rem ; border-width: 1px 0px 0px ; border-top-style: solid ; border-top-color: rgb(238 , 238 , 238) ; background: rgb(249 , 249 , 249)&quot;&gt;JVM executes Java byte code and provides an environment for executing it.&lt;/td&gt;&lt;/tr&gt;&lt;tr style=&quot;box-sizing: inherit&quot;&gt;&lt;td style=&quot;box-sizing: inherit ; padding: 0.5rem ; border-width: 1px 0px 0px ; border-top-style: solid ; border-top-color: rgb(238 , 238 , 238)&quot;&gt;JDK is platform dependent.&lt;/td&gt;&lt;td style=&quot;box-sizing: inherit ; padding: 0.5rem ; border-width: 1px 0px 0px ; border-top-style: solid ; border-top-color: rgb(238 , 238 , 238)&quot;&gt;JRE is also platform dependent.&lt;/td&gt;&lt;td style=&quot;box-sizing: inherit ; padding: 0.5rem ; border-width: 1px 0px 0px ; border-top-style: solid ; border-top-color: rgb(238 , 238 , 238)&quot;&gt;JVM is highly platform dependent.&lt;/td&gt;&lt;/tr&gt;&lt;tr style=&quot;box-sizing: inherit&quot;&gt;&lt;td style=&quot;box-sizing: inherit ; padding: 0.5rem ; border-width: 1px 0px 0px ; border-top-style: solid ; border-top-color: rgb(238 , 238 , 238) ; background: rgb(249 , 249 , 249)&quot;&gt;It contains tools for developing, debugging, and monitoring java code.&lt;/td&gt;&lt;td style=&quot;box-sizing: inherit ; padding: 0.5rem ; border-width: 1px 0px 0px ; border-top-style: solid ; border-top-color: rgb(238 , 238 , 238) ; background: rgb(249 , 249 , 249)&quot;&gt;It contains class libraries and other supporting files that JVM requires to execute the program.&lt;/td&gt;&lt;td style=&quot;box-sizing: inherit ; padding: 0.5rem ; border-width: 1px 0px 0px ; border-top-style: solid ; border-top-color: rgb(238 , 238 , 238) ; background: rgb(249 , 249 , 249)&quot;&gt;Software development tools are not included in JVM.&lt;/td&gt;&lt;/tr&gt;&lt;tr style=&quot;box-sizing: inherit&quot;&gt;&lt;td style=&quot;box-sizing: inherit ; padding: 0.5rem ; border-width: 1px 0px 0px ; border-top-style: solid ; border-top-color: rgb(238 , 238 , 238)&quot;&gt;It is the superset of JRE&lt;/td&gt;&lt;td style=&quot;box-sizing: inherit ; padding: 0.5rem ; border-width: 1px 0px 0px ; border-top-style: solid ; border-top-color: rgb(238 , 238 , 238)&quot;&gt;It is the subset of JDK.&lt;/td&gt;&lt;td style=&quot;box-sizing: inherit ; padding: 0.5rem ; border-width: 1px 0px 0px ; border-top-style: solid ; border-top-color: rgb(238 , 238 , 238)&quot;&gt;JVM is a subset of JRE.&lt;/td&gt;&lt;/tr&gt;&lt;tr style=&quot;box-sizing: inherit&quot;&gt;&lt;td style=&quot;box-sizing: inherit ; padding: 0.5rem ; border-width: 1px 0px 0px ; border-top-style: solid ; border-top-color: rgb(238 , 238 , 238) ; background: rgb(249 , 249 , 249)&quot;&gt;The JDK enables developers to create Java programs that can be executed and run by the JRE and JVM.&lt;/td&gt;&lt;td style=&quot;box-sizing: inherit ; padding: 0.5rem ; border-width: 1px 0px 0px ; border-top-style: solid ; border-top-color: rgb(238 , 238 , 238) ; background: rgb(249 , 249 , 249)&quot;&gt;The JRE is the part of Java that creates the JVM.&lt;/td&gt;&lt;td style=&quot;box-sizing: inherit ; padding: 0.5rem ; border-width: 1px 0px 0px ; border-top-style: solid ; border-top-color: rgb(238 , 238 , 238) ; background: rgb(249 , 249 , 249)&quot;&gt;It is the Java platform component that executes source code.&lt;/td&gt;&lt;/tr&gt;&lt;tr style=&quot;box-sizing: inherit&quot;&gt;&lt;td style=&quot;box-sizing: inherit ; padding: 0.5rem ; border-width: 1px 0px 0px ; border-top-style: solid ; border-top-color: rgb(238 , 238 , 238)&quot;&gt;JDK comes with the installer.&lt;/td&gt;&lt;td style=&quot;box-sizing: inherit ; padding: 0.5rem ; border-width: 1px 0px 0px ; border-top-style: solid ; border-top-color: rgb(238 , 238 , 238)&quot;&gt;JRE only contain environment to execute source code.&lt;/td&gt;&lt;td style=&quot;box-sizing: inherit ; padding: 0.5rem ; border-width: 1px 0px 0px ; border-top-style: solid ; border-top-color: rgb(238 , 238 , 238)&quot;&gt;JVM bundled in both software JDK and JRE.&lt;/td&gt;&lt;/tr&gt;&lt;/tbody&gt;&lt;/table&gt;" style="text;whiteSpace=wrap;html=1;" vertex="1" parent="1">
          <mxGeometry x="40" y="140" width="550" height="400" as="geometry" />
        </mxCell>
      </root>
    </mxGraphModel>
  </diagram>
</mxfile>
